Simulation
nRows=23
nColumns=15
endheader
time  TH_x TH_y TH_z SC_y  SC_z  SC_x  AC_y  AC_z  AC_x  GH_y  GH_z  GH_yy  EL_x  PS_y
0.0  0.000000  0.000000  0.000000  -29.201051654267562  2.591432063812013  -7.242850689289198  55.16643459525195  10.578687650703543  -1.0319767960545456  32.72600258416633  15.988818616054571  8.225119376396453  27.177578317990807  0.000000
0.038999999999999986  0.000000  0.000000  0.000000  -28.634659018248623  2.895323442836464  -7.250772978662057  54.77848183759762  10.433574702457744  -1.0173654328481907  32.810243817383686  16.352112092812433  7.857096862259553  26.749178839132583  0.000000
0.07799999999999997  0.000000  0.000000  0.000000  -28.109275508584858  3.120289469380197  -7.339290977060003  54.39799210817005  10.25993113995594  -1.0204083188576296  32.82130376279448  16.639483389578118  7.584003003517199  26.315354398259682  0.000000
0.11699999999999997  0.000000  0.000000  0.000000  -27.647120100822463  3.2545635078646873  -7.4975966024978  54.06321401392724  10.109818058617266  -1.0217265979529653  32.90023118718275  16.911279177913695  7.240006926817757  25.902552134451113  0.000000
0.15599999999999994  0.000000  0.000000  0.000000  -27.265766810788325  3.294583985315113  -7.691959533652511  53.81591565035264  10.02111165825389  -1.015983466783051  33.202101997658644  17.243837830962505  6.618027529866853  25.53084111626758  0.000000
0.19499999999999992  0.000000  0.000000  0.000000  -26.985206381214137  3.25736753616789  -7.868737273238323  53.68658489003202  10.006480450436607  -1.0031785513194198  33.86498509743876  17.712193672364027  5.527758517637118  25.21941539223773  0.000000
0.23399999999999993  0.000000  0.000000  0.000000  -26.80741421593033  3.170733453087954  -7.975011844225437  53.68209765642895  10.062718578621613  -0.9920856528050983  34.980225103449975  18.377041901744928  3.8237989049113095  24.98073795218676  0.000000
0.2729999999999999  0.000000  0.000000  0.000000  -26.722389989436827  3.065474903116645  -7.965720961568165  53.79496002877278  10.174302952120204  -0.9943179707616135  36.54997876411164  19.282374749638038  1.4620196760580868  24.81704066060855  0.000000
0.3119999999999999  0.000000  0.000000  0.000000  -26.699423433890374  2.970212229199161  -7.808733667957681  54.004638340365624  10.31842804788828  -1.0216334127411502  38.482283055491415  20.450778988935557  -1.4973186545000718  24.72345349978815  0.000000
0.35099999999999987  0.000000  0.000000  0.000000  -26.694290896451335  2.9064941095278396  -7.48394451884439  54.28916656728379  10.471074698541834  -1.0830221100140371  40.60536521493514  21.881890192964317  -4.893618104598999  24.690589613638842  0.000000
0.38999999999999985  0.000000  0.000000  0.000000  -26.655563112503074  2.8904905323868304  -6.981718372805795  54.62472201297526  10.611064246825316  -1.1830608340014739  42.72393587549712  23.550694697534517  -8.523688052909057  24.712099262178615  0.000000
0.4289999999999998  0.000000  0.000000  0.000000  -26.538255546476726  2.9334032403147026  -6.299348374774823  54.990435063266084  10.723067012948642  -1.322819401021071  44.67074504411773  25.4119136577619  -12.192831489264503  24.78217554451137  0.000000
0.46799999999999986  0.000000  0.000000  0.000000  -26.311817614510915  3.041920344807189  -5.439046635748508  55.3663666468186  10.797940954973182  -1.5012452571084747  46.34192373725786  27.408167348506876  -15.758684265002385  24.889432900054146  0.000000
0.5069999999999998  0.000000  0.000000  0.000000  -25.966307934027853  3.2199244034070666  -4.406642764261677  55.7347511713798  10.831216335640674  -1.7155910027478245  47.7025444437542  29.48043581974438  -19.14478010147111  25.015008361285687  0.000000
0.5459999999999998  0.000000  0.000000  0.000000  -25.514081126368392  3.4704541533105506  -3.2102914848792374  56.07860628052292  10.819336319873141  -1.960993052211356  48.77524471333076  31.57671265382701  -22.336510641623754  25.13783001947746  0.000000
0.5849999999999997  0.000000  0.000000  0.000000  -24.98665646621011  3.794997334258903  -1.8608228718976445  56.383085319814754  10.758319057188421  -2.231072502521223  49.61827579716519  33.65778355601208  -25.36482906456847  25.239393382930313  0.000000
0.6239999999999998  0.000000  0.000000  0.000000  -24.42675212294732  4.191779464187255  -0.372843320466395  56.63722834323259  10.645184684878378  -2.5175921734277082  50.301535392588356  35.69824221632423  -28.280637325059654  25.306267012534374  0.000000
0.6629999999999998  0.000000  0.000000  0.000000  -23.876468891933072  4.655426486868815  1.2350780866220894  56.83674138799925  10.48044043810271  -2.8094800990520397  50.88428823725903  37.68324221295854  -31.125045351713936  25.33051988424601  0.000000
0.7019999999999997  0.000000  0.000000  0.000000  -23.367333909806117  5.1775752354353655  2.9419469651358128  56.985602948144596  10.2699623161233  -3.0918152851037575  51.40063593481045  39.602560755631885  -33.90314103465098  25.308496410818332  0.000000
0.7409999999999998  0.000000  0.000000  0.000000  -22.915611213257197  5.748122744381712  4.72562582613576  57.094791995340074  10.024862080466049  -3.3458371896761965  51.85520038515909  41.44525993810664  -36.57438665876307  25.240586634710862  0.000000
0.7799999999999997  0.000000  0.000000  0.000000  -22.52587972547031  6.356133402982979  6.562660372169131  57.17874132631139  9.759403850655834  -3.5502803897102257  52.23088635280914  43.19737554074168  -39.06441724282259  25.131624868866243  0.000000
0.8189999999999997  0.000000  0.000000  0.000000  -22.198502153204597  6.990712727643825  8.42591252899108  57.25071803827508  9.48793457115882  -3.6831953794586036  52.50215782712086  44.84337942468119  -41.29201981565297  24.992666077582207  0.000000
0.8579999999999997  0.000000  0.000000  0.000000  -21.936915828688555  7.6416753917140925  10.282507285464122  57.320202499144884  9.22283936980613  -3.724275196266023  52.647826943129985  46.369844267793205  -43.19585978273747  24.841097383604033  0.000000
